<svg id="Capa_1" data-name="Capa 1" xmlns="http://www.w3.org/2000/svg" width="96.98" height="96.98" viewBox="0 0 96.98 96.98">
  <g>
    <circle cx="48.49" cy="48.49" r="48.49" fill="#fff"/>
    <g>
      <path d="M49.54,60.2c-.29.09-.58,0-.78.19-.39.39-.78,1.36-1.36,1.65V59.22a4.06,4.06,0,0,0,4.28-3.89,4.13,4.13,0,0,0-4.28-3.89V48.72c.19.58.39.68.88.87.68.29,1-.87,1.45-1.26a1.33,1.33,0,0,1,1.76.68,5.09,5.09,0,0,1,0,1.17c0,.77,1.36,1.26,2,.68.48-.39,1.17.19,1.46.58a.79.79,0,0,1-.29,1.27c-.39.38-.78.48-.78,1a1.82,1.82,0,0,0,.09.78,2.73,2.73,0,0,0,1.27.68c.29,0,.49,0,.58.29,0,.1.1.19.1.29,0,.29,0,1.27-.29,1.36s-.59,0-.78,0c-.39,0-1.17,0-1.36.2s-.29.29-.39.39a.28.28,0,0,0-.1.19l-.19.29c-.2.3-.39.49-.1.78a1,1,0,0,1,.19,1.17c-.19.29-.29.68-.68.87s-1,.3-1.26-.19c-.1-.29-.39-.39-.68-.58C50,60.2,49.54,60.29,49.54,60.2Z" fill="#04256c" fill-rule="evenodd"/>
      <path d="M43.12,65.16a.79.79,0,0,0-.58.29.92.92,0,0,0,0,1.36.79.79,0,0,0,.58.29H47.4V65.25H43.12ZM42.54,68a.92.92,0,0,0,0,1.36.83.83,0,0,0,.58.29H47.5V67.78H43.22A1.33,1.33,0,0,0,42.54,68Zm.58-5.55a.81.81,0,0,0-.58.3.85.85,0,0,0-.3.68.88.88,0,0,0,.3.68.83.83,0,0,0,.58.29H47.4V62.53H43.12ZM31,69.34c0-.1-.1-.1-.1-.19a.64.64,0,0,1-.09-.39.73.73,0,0,1,.29-.68H24.73c.49.48.88,1,1.37,1.45h5C31.06,69.34,31,69.34,31,69.34Z" fill="#04256c"/>
      <path d="M46.91,19.44A29.52,29.52,0,0,0,17.24,48.72a28.45,28.45,0,0,0,7.1,19h7.4v.39l-.1.09a.1.1,0,0,0-.1.1l-.09.1a.83.83,0,0,0-.3.58.34.34,0,0,0,.1.29.1.1,0,0,0,.1.1,1,1,0,0,0,.49.39l.09.1v.39H26.58A29.86,29.86,0,0,0,47,78.29h.49V70.41H43.22a1,1,0,0,1-.88-.49A2.09,2.09,0,0,1,42,69a1.75,1.75,0,0,1,.39-1,2.11,2.11,0,0,1,.58-.39c-.19-.1-.48-.2-.58-.39a2.09,2.09,0,0,1-.39-1,1.81,1.81,0,0,1,.39-1,1.16,1.16,0,0,1,.88-.48,1,1,0,0,1-.88-.49,2.09,2.09,0,0,1-.39-1,1.75,1.75,0,0,1,.39-1,1.14,1.14,0,0,1,.88-.49h3.6a1.31,1.31,0,0,1-.59-.88.89.89,0,0,0-1.36-.68c-.19.1-.78.49-.78.68-.29.39-1.17-.29-1.26-.58a5.29,5.29,0,0,1,0-1.26c0-.68-.88-.88-1.36-.78-.3.1-.69.19-.78,0s-.2-.39-.49-.59-.49-.77-.19-1a3.67,3.67,0,0,1,.77-.49c.78-.29,1.27-1,.69-1.65a9.9,9.9,0,0,0-1.37-.58c-.68-.29-.19-1.36.2-1.75a.57.57,0,0,1,.68,0c.87.58,1.56-.3,1.36-1.07-.1-.39-.39-.59-.39-.88a.69.69,0,0,1,.29-.58c.3-.29.49-.59,1-.59s.78.39,1.16.59.78.29,1.17-.1.29-.58.2-1c-.2-1,.19-1,.48-1.07,1.07-.29,1.07-.29,1.46.78V19.05C47.3,19.44,47.11,19.44,46.91,19.44ZM41.66,67.88a1.77,1.77,0,0,0-.39.88.94.94,0,0,0,.39.87,1,1,0,0,0,.78.39H32.81a1.23,1.23,0,0,1-.88-.39,1.77,1.77,0,0,1-.39-.87,1.27,1.27,0,0,1,.39-.88,1.08,1.08,0,0,1,.88-.39h9.63A.89.89,0,0,0,41.66,67.88Zm.1-3.21h.68a.89.89,0,0,0-.78.39,1.77,1.77,0,0,0-.39.88,1,1,0,0,0,.39.87,1,1,0,0,0,.78.39H32.81a1.23,1.23,0,0,1-.88-.39,1.77,1.77,0,0,1-.39-.87,1.25,1.25,0,0,1,.39-.88,1.08,1.08,0,0,1,.88-.39Zm.39-15.17a1.25,1.25,0,0,0-.3.38c-.09.1-.19.2-.19.3-.19.39-.1.48-.68.58-.2,0-.49.1-.58.1a14.86,14.86,0,0,1-2,0,14.21,14.21,0,0,0-2.14.09c-.78.1-1,.1-1,.88A3.5,3.5,0,0,1,35,53.19a11.82,11.82,0,0,0-1,2c0,.19-.1.39,0,.58a1.33,1.33,0,0,0,.48.78,10.34,10.34,0,0,1,1.07.58,12.79,12.79,0,0,1,1.66,1c.19.09.29.29.48.39.78.77.2,1.45-.29,2.23a14,14,0,0,0-1.07,2.43c-.19.39-.1.49.1.39a8.45,8.45,0,0,0,.87-.19c.1,0,.59-.1.59.1s-.39.39-.59.39c-.58.19-1,.38-1.55.58s-.78.1-.68-.68a3.54,3.54,0,0,0,.29-1.36,4,4,0,0,1,.48-1.85,1.31,1.31,0,0,0,.39-1.17.81.81,0,0,0-.29-.58L32.42,57a.59.59,0,0,1-.1.39c-.1,1-.48,2.23-.68,3.5a3.48,3.48,0,0,1-.78,1.85c-.19.29-.48.58-.58.77A20.2,20.2,0,0,1,28.53,66c-.49.68.68.78,1,1.27s-.19.48-.58.29-1.07-.49-1.46-.68-.39-.59,0-.68c.48-.29.78-1.36.87-1.85a10.52,10.52,0,0,1,1.17-2.14c.58-.58.58-.68.49-1.46a25.09,25.09,0,0,0-.39-2.72,5.37,5.37,0,0,1,.19-2.24,11.36,11.36,0,0,0,1.27-2c.09-.29.09-.68.19-.78a15.41,15.41,0,0,1,.1-2.14,2.89,2.89,0,0,1,1-1.75c.68-.39,1.17-.39,1-1.07a3.94,3.94,0,0,1-.19-.87v-.39a1.26,1.26,0,0,1,1.17-1.17,1.37,1.37,0,0,1,1.55.68c.3.68-.09.88,0,1.46s-.39.1-.39.68c0,.29,0,.49-.38.39a1,1,0,0,0-.3-.1c-.29-.19-.48.3-.48.69,0,.68,1,.48,1.46.58a22.15,22.15,0,0,0,4.37.29.65.65,0,0,0,.68-.39,1.19,1.19,0,0,1,.49-.48c.68-.2.78-.2.88,0C42.34,49.4,42.24,49.5,42.15,49.5Z" fill="#04256c"/>
      <path d="M43.12,55.33a4.13,4.13,0,0,0,4.28,3.89V51.44A4.06,4.06,0,0,0,43.12,55.33ZM40.69,65.94c0-.3.09-.69.29-.78H32.91a.83.83,0,0,0-.59.29.94.94,0,0,0,0,1.36.83.83,0,0,0,.59.29H41A2.82,2.82,0,0,1,40.69,65.94Zm0,2.82c0-.3.09-.68.29-.78H32.91a.87.87,0,0,0-.59.29A.89.89,0,0,0,32,69a.58.58,0,0,0,.29.58.84.84,0,0,0,.59.3H41A2.46,2.46,0,0,1,40.69,68.76ZM22,67.69H26.1v.39H22a1.36,1.36,0,0,0-.68.19.53.53,0,0,0-.29.49.51.51,0,0,0,.29.48.8.8,0,0,0,.68.2H26.1v.39H22a1.19,1.19,0,0,1-.88-.3.86.86,0,0,1-.38-.77,1.19,1.19,0,0,1,.38-.78A1.56,1.56,0,0,1,22,67.69Zm35.21-.2h5.94a.89.89,0,0,0-.78.39,1.77,1.77,0,0,0-.39.88.94.94,0,0,0,.39.87,1,1,0,0,0,.78.39h-6v-.49h4.38a1.25,1.25,0,0,1-.3-.77c0-.3.1-.68.3-.78H57.13Zm-3.69,0h3.69V68H53.53a.87.87,0,0,0-.59.29.94.94,0,0,0,0,1.36.83.83,0,0,0,.59.29h3.69v.49H53.53a1.23,1.23,0,0,1-.88-.39,1.77,1.77,0,0,1-.39-.87,1.25,1.25,0,0,1,.39-.88C52.94,67.69,53.24,67.49,53.53,67.49Zm-6.32-2.82h5.25V61.75H47.21v.59H52v1.75H47.21Zm0,0h5.25v2.82H47.21V67H52V65.16H47.21Z" fill="#04256c"/>
      <path d="M47.21,70h5.25V67.2H47.21v.49H52v1.84H47.21Zm10-5.35h5.94a.89.89,0,0,0-.78.39,1.77,1.77,0,0,0-.39.88,1,1,0,0,0,.39.87,1,1,0,0,0,.78.39h-6v-.49h4.38a1.25,1.25,0,0,1-.3-.77c0-.3.1-.69.3-.78H57.13Zm-3.69,0h3.69v.49H53.53a.83.83,0,0,0-.59.29.85.85,0,0,0-.29.58.89.89,0,0,0,.29.68.84.84,0,0,0,.59.3h3.69v.38H53.53a1.27,1.27,0,0,1-.88-.38,1.84,1.84,0,0,1-.39-.88,1.27,1.27,0,0,1,.39-.88A1,1,0,0,1,53.53,64.67Zm3.69-2.92h5.94a.89.89,0,0,0-.78.39A1.8,1.8,0,0,0,62,63a.94.94,0,0,0,.39.87,1,1,0,0,0,.78.39h-6V63.8h4.38a1.3,1.3,0,0,1-.3-.78c0-.2.1-.68.3-.78H57.13Zm-3.69,0h3.69v.49H53.53a.87.87,0,0,0-.59.29.91.91,0,0,0-.29.68.89.89,0,0,0,.29.68.83.83,0,0,0,.59.29h3.69v.49H53.53a1.23,1.23,0,0,1-.88-.39,1.77,1.77,0,0,1-.39-.87,1.27,1.27,0,0,1,.39-.88C52.94,62,53.24,61.75,53.53,61.75Zm3.69-2.82h5.94a.89.89,0,0,0-.78.39,1.77,1.77,0,0,0-.39.88.94.94,0,0,0,.39.87,1,1,0,0,0,.78.39h-6V61h4.38a1.25,1.25,0,0,1-.3-.77c0-.3.1-.68.3-.78H57.13Zm-3.69,0h3.69v.49H53.53a.87.87,0,0,0-.59.29.94.94,0,0,0,0,1.36.83.83,0,0,0,.59.29h3.69v.3H53.53a1.27,1.27,0,0,1-.88-.39,1.84,1.84,0,0,1-.39-.88,1.23,1.23,0,0,1,.39-.87A1.19,1.19,0,0,1,53.53,58.93Zm13.71,8.56h6a.87.87,0,0,0-.78.39,1.68,1.68,0,0,0-.39.88.94.94,0,0,0,.39.87,1,1,0,0,0,.78.39h-6v-.49h4.38a1.3,1.3,0,0,1-.29-.77c0-.3.1-.68.29-.78H67.24Zm-3.59,0h3.69V68H63.65a.87.87,0,0,0-.59.29.94.94,0,0,0,0,1.36.83.83,0,0,0,.59.29h3.69v.49H63.65a1.21,1.21,0,0,1-.88-.39,1.77,1.77,0,0,1-.39-.87,1.25,1.25,0,0,1,.39-.88C63.06,67.69,63.26,67.49,63.65,67.49Z" fill="#04256c"/>
      <path d="M67.24,64.67h6a.87.87,0,0,0-.78.39,1.68,1.68,0,0,0-.39.88,1,1,0,0,0,.39.87,1,1,0,0,0,.78.39h-6v-.49h4.38a1.1,1.1,0,0,1-.29-.77c0-.3.1-.69.29-.78H67.24Zm-3.59,0h3.69v.49H63.65a.83.83,0,0,0-.59.29.85.85,0,0,0-.29.58.89.89,0,0,0,.29.68.84.84,0,0,0,.59.3h3.69v.38H63.65a1.25,1.25,0,0,1-.88-.38,1.84,1.84,0,0,1-.39-.88,1.27,1.27,0,0,1,.39-.88C63.06,64.77,63.26,64.67,63.65,64.67Zm3.59-2.92h6a.87.87,0,0,0-.78.39,1.72,1.72,0,0,0-.39.88.94.94,0,0,0,.39.87,1,1,0,0,0,.78.39h-6V63.8h4.38a1.35,1.35,0,0,1-.29-.78c0-.2.1-.68.29-.78H67.24Zm-3.59,0h3.69v.49H63.65a.87.87,0,0,0-.59.29.91.91,0,0,0-.29.68.89.89,0,0,0,.29.68.83.83,0,0,0,.59.29h3.69v.49H63.65a1.21,1.21,0,0,1-.88-.39,1.77,1.77,0,0,1-.39-.87,1.27,1.27,0,0,1,.39-.88C63.06,62,63.26,61.75,63.65,61.75Zm3.59-2.82h6a.87.87,0,0,0-.78.39,1.68,1.68,0,0,0-.39.88.94.94,0,0,0,.39.87,1,1,0,0,0,.78.39h-6V61h4.38a1.1,1.1,0,0,1-.29-.77c0-.3.1-.68.29-.78H67.24Zm-3.59,0h3.69v.49H63.65a.87.87,0,0,0-.59.29.94.94,0,0,0,0,1.36.83.83,0,0,0,.59.29h3.69v.3H63.65a1.25,1.25,0,0,1-.88-.39,1.84,1.84,0,0,1-.39-.88,1.23,1.23,0,0,1,.39-.87C63.06,59.13,63.26,58.93,63.65,58.93Z" fill="#04256c"/>
      <path d="M67.24,56.11h6a.85.85,0,0,0-.78.39,1.68,1.68,0,0,0-.39.88,1,1,0,0,0,.39.87,1,1,0,0,0,.78.39h-6v-.49h4.38a1.3,1.3,0,0,1-.29-.77c0-.3.1-.69.29-.78H67.24Zm-3.59,0h3.69v.49H63.65a.83.83,0,0,0-.59.29.94.94,0,0,0,0,1.36.83.83,0,0,0,.59.29h3.69V59H63.65a1.25,1.25,0,0,1-.88-.39,1.77,1.77,0,0,1-.39-.88,1.25,1.25,0,0,1,.39-.87C63.06,56.21,63.26,56.11,63.65,56.11ZM10.92,66.32l6.91-3.5.39.68L11.31,67Zm2.53-7.78c.39-.19.68-.29.78-.48s.39-.3.48-.49a.91.91,0,0,0,0-.88c-.19-.39-.38-.68-.77-.68a.36.36,0,0,1-.2-.09.35.35,0,0,1-.29-.1,1.91,1.91,0,0,0-1.27.29,1.78,1.78,0,0,0-.48.68,2.8,2.8,0,0,0-.2.88,5.9,5.9,0,0,1-.39,1.46,1.45,1.45,0,0,1-1.36.77H9.27c-.2,0-.3,0-.39-.09a1.76,1.76,0,0,1-1.36-1.46,4.08,4.08,0,0,0-.1-.49,1.89,1.89,0,0,1,.39-1.17,1.16,1.16,0,0,1,1-.68h.39v.68H9a2.36,2.36,0,0,0-.58.39,1,1,0,0,0-.19.68v.3a1.19,1.19,0,0,0,.77.87h.59c.48,0,.68-.19.78-.48a2.16,2.16,0,0,0,.29-1.17c.1-.39.1-.68.19-1a1.93,1.93,0,0,1,.68-.88,2.48,2.48,0,0,1,1.85-.49.57.57,0,0,1,.39.1c.1,0,.29.1.39.1A2.07,2.07,0,0,1,15.2,56.3a1.75,1.75,0,0,1,0,1.56c-.19.29-.39.59-.68.68a5.72,5.72,0,0,1-1,.68Zm1-13.62-2.62.68-.1,3.21,2.43,1.07v.78L9.36,48.43v-.78l1.66.78.19-2.63-1.85.58V45.6l5.35-1.45Zm-5.25,3.6-3-1.46.1-.68,3-.78v.78L7.42,47l1.85.77Zm6.13-8.46L8.1,37l.19-.39v-.09l.2-.29,1.26-2.92.68.29L9.17,36.56l2.43,1.07,1.27-2.73.68.3-1.17,2.72L15,39l1.26-2.92.68.39-1.46,3.21ZM18,21.38l.59-.68,3.3,3a10.18,10.18,0,0,1,1.17,1.36,1.75,1.75,0,0,1,.29,1.36,2.43,2.43,0,0,1-.78,1.36,1.89,1.89,0,0,1-1.84.78,4.19,4.19,0,0,1-2.44-1.36l-3.3-3,.58-.68,3.31,3a4.81,4.81,0,0,0,1.16.87,1.42,1.42,0,0,0,.88.1,2.16,2.16,0,0,0,.78-.49,1.84,1.84,0,0,0,.58-1.26,3.62,3.62,0,0,0-1.17-1.65ZM28.24,23l-3.8-6.72.78-.39,6.23,3.51-2.92-5.26.78-.48L33,20.51l-.78.48-6.12-3.6L29,22.74Zm8.46-12-.88.19L38,18.66l.88-.2Zm9,6.71L43.12,10.1h1l1.85,5.54a6.17,6.17,0,0,1,.39,1.27c.1-.49.29-.78.39-1.27l1.75-5.54h.88l-2.73,7.68Zm7.78.59L55.38,11l4.08,1-.19.77L55.86,12l-.58,2.23,3.21.78-.2,1-3.21-.77-.58,2.53,3.5.77-.19.88ZM71.72,24l.58.58c-.29.29-.48.59-.68.78a2.34,2.34,0,0,0-.1.78,2.12,2.12,0,0,0,.39.78,1.33,1.33,0,0,0,1,.58,1.66,1.66,0,0,0,1-.29,1.86,1.86,0,0,0,.39-.49,1.19,1.19,0,0,0,.1-.58A3.31,3.31,0,0,0,73.86,25a4.57,4.57,0,0,1-.39-1.26,1.75,1.75,0,0,1,.2-.78,1.12,1.12,0,0,1,.68-.68,2.37,2.37,0,0,1,1.55-.59,2,2,0,0,1,1.46.78A3,3,0,0,1,78,23.52a2.07,2.07,0,0,1-.1,1.07,2.49,2.49,0,0,1-.78,1L76.49,25a2.57,2.57,0,0,0,.68-1,1.25,1.25,0,0,0-.39-1,1.19,1.19,0,0,0-.88-.59c-.29,0-.68,0-.78.29a.85.85,0,0,0-.38.68,2.28,2.28,0,0,0,.38,1.17c.3.59.39,1,.49,1.17a1.34,1.34,0,0,1-.1,1.07,1.39,1.39,0,0,1-.77.88,4,4,0,0,1-1.08.58,1.31,1.31,0,0,1-1.07-.1,2.29,2.29,0,0,1-1-.68A2.26,2.26,0,0,1,71,25.66,1.48,1.48,0,0,1,71.72,24ZM83,29.16l-6.71,3.9.39.68,6.71-3.89Zm.3,7.69L86.41,36l.78,2.34a4.37,4.37,0,0,1,.29,1.36,2.43,2.43,0,0,1-.39,1.17C86.6,42,85,42.88,83.3,43V42.1c1.55-.09,3.11-1.07,3.11-2.43a2.84,2.84,0,0,0-.2-1.17L85.73,37l-2.43.78ZM79,38.11l4.28-1.26v1l-3.12.88.49,1.46a3,3,0,0,0,.68,1.26,2.59,2.59,0,0,0,2.14.68V43a3.49,3.49,0,0,1-2.63-.88,2.58,2.58,0,0,1-.77-1.55Zm7.1,11.68L88.84,51l-.1,1-2.62,1V52l.29-.09c.68-.2,1.17-.39,1.65-.49A8.64,8.64,0,0,1,86.6,51l-.48-.19Zm-4.87-1.95,4.87,2v.88l-1.85-.68-.1,2.43,2-.58v1l-5.26,1.65.1-1.07,2.43-.68.2-3-2.34-.88Zm1.46,11.68L87,61.07l-.78,2.24a3,3,0,0,1-.68,1.26,1.93,1.93,0,0,1-1,.68,3.85,3.85,0,0,1-1.85.39v-.87a2.86,2.86,0,0,0,2.14-.68A3.62,3.62,0,0,0,85.44,63L86,61.66l-3.11-1.17Zm-3-1,2.91,1.07v1l-2.33-.88-.58,1.46a2.35,2.35,0,0,0-.2,1.36c.1,1.36,1.66,2.34,3.11,2.43v.88c-1.94-.1-4-1.36-4.08-3.11a4.56,4.56,0,0,1,.29-1.85ZM62.28,21.09l3.89-6.61,2.44,1.36c.19.09.39.29.58.39,1,.68.83,2.15.2,3.09a2.39,2.39,0,0,1-2.63.89l.1,3.51-.78-.49-.2-4.47c.59.29,2.25.9,2.69,0A1.59,1.59,0,0,0,68,16.42l-1.55-.87L63,21.48Z" fill="#04256c"/>
    </g>
  </g>
</svg>
